<svg xmlns="http://www.w3.org/2000/svg" viewBox="0 0 200 200" role="img" aria-label="Raajarvis HUD">
  <defs>
    <radialGradient id="core" cx="50%" cy="50%" r="50%">
      <stop offset="0%" stop-color="#ffffff"/>
      <stop offset="35%" stop-color="#00e5ff"/>
      <stop offset="100%" stop-color="#0047ab"/>
    </radialGradient>
    <radialGradient id="glow" cx="50%" cy="50%" r="50%">
      <stop offset="0%" stop-color="#00d4ff" stop-opacity="0.55"/>
      <stop offset="100%" stop-color="#00d4ff" stop-opacity="0"/>
    </radialGradient>
    <linearGradient id="web" x1="0%" y1="0%" x2="100%" y2="100%">
      <stop offset="0%" stop-color="#e23636" stop-opacity="0.85"/>
      <stop offset="100%" stop-color="#2484ff" stop-opacity="0.85"/>
    </linearGradient>
    <filter id="blur" x="-50%" y="-50%" width="200%" height="200%">
      <feGaussianBlur stdDeviation="3"/>
    </filter>
  </defs>
  <circle cx="100" cy="100" r="92" fill="url(#glow)" filter="url(#blur)"/>
  <circle cx="100" cy="100" r="88" fill="none" stroke="#2484ff" stroke-width="1.5" opacity="0.35"/>
  <circle cx="100" cy="100" r="72" fill="none" stroke="#e23636" stroke-width="1" opacity="0.45" stroke-dasharray="4 6"/>
  <circle cx="100" cy="100" r="56" fill="none" stroke="#00d4ff" stroke-width="2" opacity="0.7"/>
  <g opacity="0.22" stroke="url(#web)" stroke-width="1.2" fill="none">
    <path d="M100 18 L118 82 L182 100 L118 118 L100 182 L82 118 L18 100 L82 82 Z"/>
    <path d="M100 34 L108 76 L152 100 L108 124 L100 166 L92 124 L48 100 L92 76 Z"/>
    <line x1="100" y1="8" x2="100" y2="192"/>
    <line x1="8" y1="100" x2="192" y2="100"/>
    <line x1="28" y1="28" x2="172" y2="172"/>
    <line x1="172" y1="28" x2="28" y2="172"/>
  </g>
  <circle cx="100" cy="100" r="34" fill="#061018" stroke="#00d4ff" stroke-width="2.5"/>
  <circle cx="100" cy="100" r="24" fill="url(#core)"/>
  <circle cx="100" cy="100" r="10" fill="#ffffff" opacity="0.92"/>
  <text x="100" y="154" text-anchor="middle" font-family="ui-monospace, monospace" font-size="11" fill="#00d4ff" letter-spacing="3">RAAJARVIS</text>
</svg>
